<svg id="d1012" width="1422.456298828125" xmlns="http://www.w3.org/2000/svg" class="flowchart" height="353.5999755859375" viewBox="0 0 1422.456298828125 353.5999755859375" role="graphics-document document" aria-roledescription="flowchart-v2"><style>#d1012{font-family:"trebuchet ms",verdana,arial,sans-serif;font-size:16px;fill:#000000;}@keyframes edge-animation-frame{from{stroke-dashoffset:0;}}@keyframes dash{to{stroke-dashoffset:0;}}#d1012 .edge-animation-slow{stroke-dasharray:9,5!important;stroke-dashoffset:900;animation:dash 50s linear infinite;stroke-linecap:round;}#d1012 .edge-animation-fast{stroke-dasharray:9,5!important;stroke-dashoffset:900;animation:dash 20s linear infinite;stroke-linecap:round;}#d1012 .error-icon{fill:#552222;}#d1012 .error-text{fill:#552222;stroke:#552222;}#d1012 .edge-thickness-normal{stroke-width:1px;}#d1012 .edge-thickness-thick{stroke-width:3.5px;}#d1012 .edge-pattern-solid{stroke-dasharray:0;}#d1012 .edge-thickness-invisible{stroke-width:0;fill:none;}#d1012 .edge-pattern-dashed{stroke-dasharray:3;}#d1012 .edge-pattern-dotted{stroke-dasharray:2;}#d1012 .marker{fill:#666;stroke:#666;}#d1012 .marker.cross{stroke:#666;}#d1012 svg{font-family:"trebuchet ms",verdana,arial,sans-serif;font-size:16px;}#d1012 p{margin:0;}#d1012 .label{font-family:"trebuchet ms",verdana,arial,sans-serif;color:#000000;}#d1012 .cluster-label text{fill:#333;}#d1012 .cluster-label span{color:#333;}#d1012 .cluster-label span p{background-color:transparent;}#d1012 .label text,#d1012 span{fill:#000000;color:#000000;}#d1012 .node rect,#d1012 .node circle,#d1012 .node ellipse,#d1012 .node polygon,#d1012 .node path{fill:#eee;stroke:#999;stroke-width:1px;}#d1012 .rough-node .label text,#d1012 .node .label text,#d1012 .image-shape .label,#d1012 .icon-shape .label{text-anchor:middle;}#d1012 .node .katex path{fill:#000;stroke:#000;stroke-width:1px;}#d1012 .rough-node .label,#d1012 .node .label,#d1012 .image-shape .label,#d1012 .icon-shape .label{text-align:center;}#d1012 .node.clickable{cursor:pointer;}#d1012 .root .anchor path{fill:#666!important;stroke-width:0;stroke:#666;}#d1012 .arrowheadPath{fill:#333333;}#d1012 .edgePath .path{stroke:#666;stroke-width:1px;}#d1012 .flowchart-link{stroke:#666;fill:none;}#d1012 .edgeLabel{background-color:white;text-align:center;}#d1012 .edgeLabel p{background-color:white;}#d1012 .edgeLabel rect{opacity:0.5;background-color:white;fill:white;}#d1012 .labelBkg{background-color:rgba(255, 255, 255, 0.5);}#d1012 .cluster rect{fill:hsl(0, 0%, 98.9215686275%);stroke:#707070;stroke-width:1px;}#d1012 .cluster text{fill:#333;}#d1012 .cluster span{color:#333;}#d1012 div.mermaidTooltip{position:absolute;text-align:center;max-width:200px;padding:2px;font-family:"trebuchet ms",verdana,arial,sans-serif;font-size:12px;background:hsl(-160, 0%, 93.3333333333%);border:1px solid #707070;border-radius:2px;pointer-events:none;z-index:100;}#d1012 .flowchartTitleText{text-anchor:middle;font-size:18px;fill:#000000;}#d1012 rect.text{fill:none;stroke-width:0;}#d1012 .icon-shape,#d1012 .image-shape{background-color:white;text-align:center;}#d1012 .icon-shape p,#d1012 .image-shape p{background-color:white;padding:2px;}#d1012 .icon-shape .label rect,#d1012 .image-shape .label rect{opacity:0.5;background-color:white;fill:white;}#d1012 .label-icon{display:inline-block;height:1em;overflow:visible;vertical-align:-0.125em;}#d1012 .node .label-icon path{fill:currentColor;stroke:revert;stroke-width:revert;}#d1012 .node .neo-node{stroke:#999;}#d1012 [data-look="neo"].node rect,#d1012 [data-look="neo"].cluster rect,#d1012 [data-look="neo"].node polygon{stroke:url(#d1012-gradient);filter:drop-shadow( 1px 2px 2px rgba(185,185,185,1));}#d1012 [data-look="neo"].swimlane.cluster rect{filter:none;}#d1012 [data-look="neo"].node path{stroke:url(#d1012-gradient);stroke-width:1px;}#d1012 [data-look="neo"].node .outer-path{filter:drop-shadow( 1px 2px 2px rgba(185,185,185,1));}#d1012 [data-look="neo"].node .neo-line path{stroke:#999;filter:none;}#d1012 [data-look="neo"].node circle{stroke:url(#d1012-gradient);filter:drop-shadow( 1px 2px 2px rgba(185,185,185,1));}#d1012 [data-look="neo"].node circle .state-start{fill:#000000;}#d1012 [data-look="neo"].icon-shape .icon{fill:url(#d1012-gradient);filter:drop-shadow( 1px 2px 2px rgba(185,185,185,1));}#d1012 [data-look="neo"].icon-shape .icon-neo path{stroke:url(#d1012-gradient);filter:drop-shadow( 1px 2px 2px rgba(185,185,185,1));}#d1012 :root{--mermaid-font-family:"trebuchet ms",verdana,arial,sans-serif;}#d1012 .caller rect{fill:rgb(232, 234, 246)!important;stroke:rgb(57, 73, 171)!important;color:rgb(26, 35, 126)!important;}#d1012 .caller polygon{fill:rgb(232, 234, 246)!important;stroke:rgb(57, 73, 171)!important;color:rgb(26, 35, 126)!important;}#d1012 .caller ellipse{fill:rgb(232, 234, 246)!important;stroke:rgb(57, 73, 171)!important;color:rgb(26, 35, 126)!important;}#d1012 .caller circle{fill:rgb(232, 234, 246)!important;stroke:rgb(57, 73, 171)!important;color:rgb(26, 35, 126)!important;}#d1012 .caller path{fill:rgb(232, 234, 246)!important;stroke:rgb(57, 73, 171)!important;color:rgb(26, 35, 126)!important;}#d1012 .caller tspan{fill:rgb(26, 35, 126)!important;}#d1012 .policy rect{fill:rgb(254, 247, 224)!important;stroke:rgb(176, 96, 0)!important;color:rgb(122, 65, 0)!important;}#d1012 .policy polygon{fill:rgb(254, 247, 224)!important;stroke:rgb(176, 96, 0)!important;color:rgb(122, 65, 0)!important;}#d1012 .policy ellipse{fill:rgb(254, 247, 224)!important;stroke:rgb(176, 96, 0)!important;color:rgb(122, 65, 0)!important;}#d1012 .policy circle{fill:rgb(254, 247, 224)!important;stroke:rgb(176, 96, 0)!important;color:rgb(122, 65, 0)!important;}#d1012 .policy path{fill:rgb(254, 247, 224)!important;stroke:rgb(176, 96, 0)!important;color:rgb(122, 65, 0)!important;}#d1012 .policy tspan{fill:rgb(122, 65, 0)!important;}#d1012 .good rect{fill:rgb(230, 244, 234)!important;stroke:rgb(19, 115, 51)!important;color:rgb(13, 101, 45)!important;}#d1012 .good polygon{fill:rgb(230, 244, 234)!important;stroke:rgb(19, 115, 51)!important;color:rgb(13, 101, 45)!important;}#d1012 .good ellipse{fill:rgb(230, 244, 234)!important;stroke:rgb(19, 115, 51)!important;color:rgb(13, 101, 45)!important;}#d1012 .good circle{fill:rgb(230, 244, 234)!important;stroke:rgb(19, 115, 51)!important;color:rgb(13, 101, 45)!important;}#d1012 .good path{fill:rgb(230, 244, 234)!important;stroke:rgb(19, 115, 51)!important;color:rgb(13, 101, 45)!important;}#d1012 .good tspan{fill:rgb(13, 101, 45)!important;}#d1012 .note rect{fill:rgb(227, 242, 253)!important;stroke:rgb(21, 101, 192)!important;color:rgb(13, 71, 161)!important;}#d1012 .note polygon{fill:rgb(227, 242, 253)!important;stroke:rgb(21, 101, 192)!important;color:rgb(13, 71, 161)!important;}#d1012 .note ellipse{fill:rgb(227, 242, 253)!important;stroke:rgb(21, 101, 192)!important;color:rgb(13, 71, 161)!important;}#d1012 .note circle{fill:rgb(227, 242, 253)!important;stroke:rgb(21, 101, 192)!important;color:rgb(13, 71, 161)!important;}#d1012 .note path{fill:rgb(227, 242, 253)!important;stroke:rgb(21, 101, 192)!important;color:rgb(13, 71, 161)!important;}#d1012 .note tspan{fill:rgb(13, 71, 161)!important;}</style><g><marker id="d1012_flowchart-v2-pointEnd" class="marker flowchart-v2" viewBox="0 0 10 10" refX="5" refY="5" markerUnits="userSpaceOnUse" markerWidth="8" markerHeight="8" orient="auto"><path d="M 0 0 L 10 5 L 0 10 z" class="arrowMarkerPath" style="stroke-width: 1; stroke-dasharray: 1, 0;"></path></marker><marker id="d1012_flowchart-v2-pointStart" class="marker flowchart-v2" viewBox="0 0 10 10" refX="4.5" refY="5" markerUnits="userSpaceOnUse" markerWidth="8" markerHeight="8" orient="auto"><path d="M 0 5 L 10 10 L 10 0 z" class="arrowMarkerPath" style="stroke-width: 1; stroke-dasharray: 1, 0;"></path></marker><marker id="d1012_flowchart-v2-pointEnd-margin" class="marker flowchart-v2" viewBox="0 0 11.5 14" refX="11.5" refY="7" markerUnits="userSpaceOnUse" markerWidth="10.5" markerHeight="14" orient="auto"><path d="M 0 0 L 11.5 7 L 0 14 z" class="arrowMarkerPath" style="stroke-width: 0; stroke-dasharray: 1, 0;"></path></marker><marker id="d1012_flowchart-v2-pointStart-margin" class="marker flowchart-v2" viewBox="0 0 11.5 14" refX="1" refY="7" markerUnits="userSpaceOnUse" markerWidth="11.5" markerHeight="14" orient="auto"><polygon points="0,7 11.5,14 11.5,0" class="arrowMarkerPath" style="stroke-width: 0; stroke-dasharray: 1, 0;"></polygon></marker><marker id="d1012_flowchart-v2-circleEnd" class="marker flowchart-v2" viewBox="0 0 10 10" refX="11" refY="5" markerUnits="userSpaceOnUse" markerWidth="11" markerHeight="11" orient="auto"><circle cx="5" cy="5" r="5" class="arrowMarkerPath" style="stroke-width: 1; stroke-dasharray: 1, 0;"></circle></marker><marker id="d1012_flowchart-v2-circleStart" class="marker flowchart-v2" viewBox="0 0 10 10" refX="-1" refY="5" markerUnits="userSpaceOnUse" markerWidth="11" markerHeight="11" orient="auto"><circle cx="5" cy="5" r="5" class="arrowMarkerPath" style="stroke-width: 1; stroke-dasharray: 1, 0;"></circle></marker><marker id="d1012_flowchart-v2-circleEnd-margin" class="marker flowchart-v2" viewBox="0 0 10 10" refY="5" refX="12.25" markerUnits="userSpaceOnUse" markerWidth="14" markerHeight="14" orient="auto"><circle cx="5" cy="5" r="5" class="arrowMarkerPath" style="stroke-width: 0; stroke-dasharray: 1, 0;"></circle></marker><marker id="d1012_flowchart-v2-circleStart-margin" class="marker flowchart-v2" viewBox="0 0 10 10" refX="-2" refY="5" markerUnits="userSpaceOnUse" markerWidth="14" markerHeight="14" orient="auto"><circle cx="5" cy="5" r="5" class="arrowMarkerPath" style="stroke-width: 0; stroke-dasharray: 1, 0;"></circle></marker><marker id="d1012_flowchart-v2-crossEnd" class="marker cross flowchart-v2" viewBox="0 0 11 11" refX="12" refY="5.2" markerUnits="userSpaceOnUse" markerWidth="11" markerHeight="11" orient="auto"><path d="M 1,1 l 9,9 M 10,1 l -9,9" class="arrowMarkerPath" style="stroke-width: 2; stroke-dasharray: 1, 0;"></path></marker><marker id="d1012_flowchart-v2-crossStart" class="marker cross flowchart-v2" viewBox="0 0 11 11" refX="-1" refY="5.2" markerUnits="userSpaceOnUse" markerWidth="11" markerHeight="11" orient="auto"><path d="M 1,1 l 9,9 M 10,1 l -9,9" class="arrowMarkerPath" style="stroke-width: 2; stroke-dasharray: 1, 0;"></path></marker><marker id="d1012_flowchart-v2-crossEnd-margin" class="marker cross flowchart-v2" viewBox="0 0 15 15" refX="17.7" refY="7.5" markerUnits="userSpaceOnUse" markerWidth="12" markerHeight="12" orient="auto"><path d="M 1,1 L 14,14 M 1,14 L 14,1" class="arrowMarkerPath" style="stroke-width: 2.5;"></path></marker><marker id="d1012_flowchart-v2-crossStart-margin" class="marker cross flowchart-v2" viewBox="0 0 15 15" refX="-3.5" refY="7.5" markerUnits="userSpaceOnUse" markerWidth="12" markerHeight="12" orient="auto"><path d="M 1,1 L 14,14 M 1,14 L 14,1" class="arrowMarkerPath" style="stroke-width: 2.5; stroke-dasharray: 1, 0;"></path></marker><g class="root"><g class="clusters"></g><g class="edgePaths"><path d="M261.313,58.9L278.723,58.9C296.133,58.9,330.953,58.9,371.907,72.049C412.861,85.198,459.948,111.496,483.492,124.645L507.035,137.794" id="d1012-L_CL_VS_0" class="edge-thickness-normal edge-pattern-solid edge-thickness-normal edge-pattern-solid flowchart-link" style=";" data-edge="true" data-et="edge" data-id="L_CL_VS_0" data-points="W3sieCI6MjYxLjMxMjUsInkiOjU4LjkwMDAwMTUyNTg3ODkwNn0seyJ4IjozNjUuNzczNDM3NSwieSI6NTguOTAwMDAxNTI1ODc4OTA2fSx7IngiOjUxMC41Mjc3NTc4NjYwMjEzLCJ5IjoxMzkuNzQ0MTE5NDIyNzk2OTZ9XQ==" data-look="classic" marker-end="url(#d1012_flowchart-v2-pointEnd)"></path><path d="M223.929,186.1L247.57,186.017C271.21,185.933,318.492,185.767,357.949,185.683C397.406,185.6,429.039,185.6,444.855,185.6L460.672,185.6" id="d1012-L_TEST_VS_0" class="edge-thickness-normal edge-pattern-solid edge-thickness-normal edge-pattern-solid flowchart-link" style=";" data-edge="true" data-et="edge" data-id="L_TEST_VS_0" data-points="W3sieCI6MjIzLjkyODkzMTE4NTMyOTMzLCJ5IjoxODYuMTAwMDAyMjg4ODE4MzZ9LHsieCI6MzY1Ljc3MzQzNzUsInkiOjE4NS42MDAwMDIyODg4MTgzNn0seyJ4Ijo0NjQuNjcxODc1LCJ5IjoxODUuNjAwMDAyMjg4ODE4MzN9XQ==" data-look="classic" marker-end="url(#d1012_flowchart-v2-pointEnd)"></path><path d="M696.329,161.332L720.565,155.66C744.801,149.988,793.273,138.644,837.034,132.972C880.795,127.3,919.844,127.3,939.369,127.3L958.894,127.3" id="d1012-L_VS_V1_0" class="edge-thickness-thick edge-pattern-solid edge-thickness-normal edge-pattern-solid flowchart-link" style=";" data-edge="true" data-et="edge" data-id="L_VS_V1_0" data-points="W3sieCI6Njk2LjMyODk5MTYwODAwOTYsInkiOjE2MS4zMzIxMTU4NDUwNzAxOH0seyJ4Ijo4NDEuNzQ1MzE1NTUxNzU3OCwieSI6MTI3LjMwMDAwMzA1MTc1NzgxfSx7IngiOjk2Mi44OTM3NTMwNTE3NTc4LCJ5IjoxMjcuMzAwMDAzMDUxNzU3ODF9XQ==" data-look="classic" marker-end="url(#d1012_flowchart-v2-pointEnd)"></path><path d="M711.44,194.757L733.158,196.431C754.875,198.105,798.31,201.452,839.564,206.771C880.817,212.09,919.89,219.38,939.426,223.024L958.962,226.669" id="d1012-L_VS_V2_0" class="edge-thickness-normal edge-pattern-solid edge-thickness-normal edge-pattern-solid flowchart-link" style=";" data-edge="true" data-et="edge" data-id="L_VS_V2_0" data-points="W3sieCI6NzExLjQ0MDA0MDU1Njk4MTcsInkiOjE5NC43NTY4Mzk3ODM1OTQ1fSx7IngiOjg0MS43NDUzMTU1NTE3NTc4LCJ5IjoyMDQuNzk5OTk5MjM3MDYwNTV9LHsieCI6OTYyLjg5Mzc1MzA1MTc1NzgsInkiOjIyNy40MDI5MzQzOTA1NjMxfV0=" data-look="classic" marker-end="url(#d1012_flowchart-v2-pointEnd)"></path><path d="M687.025,219.172L712.812,228.343C738.599,237.514,790.172,255.857,835.49,262.205C880.809,268.552,919.872,262.904,939.403,260.08L958.935,257.257" id="d1012-L_VS_V2_2" class="edge-thickness-normal edge-pattern-dotted edge-thickness-normal edge-pattern-solid flowchart-link" style=";" data-edge="true" data-et="edge" data-id="L_VS_V2_2" data-points="W3sieCI6Njg3LjAyNTMzNDUxODUwMywieSI6MjE5LjE3MTU0NTgyMjA3MzN9LHsieCI6ODQxLjc0NTMxNTU1MTc1NzgsInkiOjI3NC4yMDAwMDA3NjI5Mzk0NX0seyJ4Ijo5NjIuODkzNzUzMDUxNzU3OCwieSI6MjU2LjY4NDE3MjY4NTgwNjN9XQ==" data-look="classic" marker-end="url(#d1012_flowchart-v2-pointEnd)"></path><path d="M266.875,303.5L283.358,303.5C299.841,303.5,332.807,303.5,372.475,291.451C412.143,279.402,458.513,255.303,481.698,243.254L504.883,231.205" id="d1012-L_DR_VS_0" class="edge-thickness-normal edge-pattern-dotted edge-thickness-normal edge-pattern-solid flowchart-link" style=";" data-edge="true" data-et="edge" data-id="L_DR_VS_0" data-points="W3sieCI6MjY2Ljg3NSwieSI6MzAzLjV9LHsieCI6MzY1Ljc3MzQzNzUsInkiOjMwMy41fSx7IngiOjUwOC40MzE5OTExNTQxMjM1LCJ5IjoyMjkuMzYwMTE4NDQyOTQxODV9XQ==" data-look="classic" marker-end="url(#d1012_flowchart-v2-pointEnd)"></path><path d="M1139.738,127.3L1143.904,127.3C1148.071,127.3,1156.404,127.3,1164.124,128.808C1171.843,130.316,1178.949,133.332,1182.502,134.84L1186.055,136.348" id="d1012-L_V1_TEL_0" class="edge-thickness-normal edge-pattern-solid edge-thickness-normal edge-pattern-solid flowchart-link" style=";" data-edge="true" data-et="edge" data-id="L_V1_TEL_0" data-points="W3sieCI6MTEzOS43Mzc1MDMwNTE3NTc4LCJ5IjoxMjcuMzAwMDAzMDUxNzU3ODF9LHsieCI6MTE2NC43Mzc1MDMwNTE3NTc4LCJ5IjoxMjcuMzAwMDAzMDUxNzU3ODF9LHsieCI6MTE4OS43Mzc1MDMwNTE3NTc4LCJ5IjoxMzcuOTEwODU0OTIwNjM0NzN9XQ==" data-look="classic" marker-end="url(#d1012_flowchart-v2-pointEnd)"></path><path d="M1139.738,243.9L1143.904,243.9C1148.071,243.9,1156.404,243.9,1164.124,242.392C1171.843,240.884,1178.949,237.868,1182.502,236.36L1186.055,234.852" id="d1012-L_V2_TEL_0" class="edge-thickness-normal edge-pattern-solid edge-thickness-normal edge-pattern-solid flowchart-link" style=";" data-edge="true" data-et="edge" data-id="L_V2_TEL_0" data-points="W3sieCI6MTEzOS43Mzc1MDMwNTE3NTc4LCJ5IjoyNDMuOTAwMDAxNTI1ODc4OX0seyJ4IjoxMTY0LjczNzUwMzA1MTc1NzgsInkiOjI0My45MDAwMDE1MjU4Nzg5fSx7IngiOjExODkuNzM3NTAzMDUxNzU3OCwieSI6MjMzLjI4OTE0OTY1NzAwMTk5fV0=" data-look="classic" marker-end="url(#d1012_flowchart-v2-pointEnd)"></path></g><g class="edgeLabels"><g class="edgeLabel"><g class="label" data-id="L_CL_VS_0" transform="translate(0, 0)"><text xml:space="preserve" y="-10.1" text-anchor="middle"><tspan class="text-outer-tspan row" x="0" y="-0.1em" dy="1.1em" text-anchor="middle"></tspan></text></g></g><g><rect class="background" style="stroke: none"></rect></g><g class="edgeLabel"><g class="label" data-id="L_TEST_VS_0" transform="translate(0, 0)"><text xml:space="preserve" y="-10.1" text-anchor="middle"><tspan class="text-outer-tspan row" x="0" y="-0.1em" dy="1.1em" text-anchor="middle"></tspan></text></g></g><g><rect class="background" style="stroke: none"></rect></g><g class="edgeLabel" transform="translate(841.7453155517578, 127.30000305175781)"><g class="label" data-id="L_VS_V1_0" transform="translate(0, -10.5)"><g><rect class="background" style="" x="-39.8984375" y="-1" width="79.796875" height="23"></rect><text xml:space="preserve" y="-10.1" text-anchor="middle" style=""><tspan class="text-outer-tspan row" x="0" y="-0.1em" dy="1.1em" text-anchor="middle"><tspan font-style="normal" class="text-inner-tspan" font-weight="normal">weight:</tspan><tspan font-style="normal" class="text-inner-tspan" font-weight="normal"> 90</tspan></tspan></text></g></g></g><g class="edgeLabel" transform="translate(838.02994, 204.51364)"><g class="label" data-id="L_VS_V2_0" transform="translate(0, -10.5)"><g><rect class="background" style="" x="-39.8984375" y="-1" width="79.796875" height="23"></rect><text xml:space="preserve" y="-10.1" text-anchor="middle" style=""><tspan class="text-outer-tspan row" x="0" y="-0.1em" dy="1.1em" text-anchor="middle"><tspan font-style="normal" class="text-inner-tspan" font-weight="normal">weight:</tspan><tspan font-style="normal" class="text-inner-tspan" font-weight="normal"> 10</tspan></tspan></text></g></g></g><g class="edgeLabel" transform="translate(822.0507, 267.19532)"><g class="label" data-id="L_VS_V2_2" transform="translate(0, -36.900001525878906)"><g><rect class="background" style="" x="-96.1484375" y="-1" width="192.296875" height="75.80000305175781"></rect><text xml:space="preserve" y="-10.1" text-anchor="middle" style=""><tspan class="text-outer-tspan row" x="0" y="-0.1em" dy="1.1em" text-anchor="middle"><tspan font-style="normal" class="text-inner-tspan" font-weight="normal">header</tspan><tspan font-style="normal" class="text-inner-tspan" font-weight="normal"> matches</tspan><tspan font-style="normal" class="text-inner-tspan" font-weight="normal"> —</tspan><tspan font-style="normal" class="text-inner-tspan" font-weight="normal"> rule</tspan><tspan font-style="normal" class="text-inner-tspan" font-weight="normal"> 1</tspan></tspan><tspan class="text-outer-tspan row" x="0" y="1em" dy="1.1em" text-anchor="middle"><tspan font-style="normal" class="text-inner-tspan" font-weight="normal">wins,</tspan></tspan><tspan class="text-outer-tspan row" x="0" y="2.1em" dy="1.1em" text-anchor="middle"><tspan font-style="normal" class="text-inner-tspan" font-weight="normal">every</tspan><tspan font-style="normal" class="text-inner-tspan" font-weight="normal"> tagged</tspan><tspan font-style="normal" class="text-inner-tspan" font-weight="normal"> request</tspan><tspan font-style="normal" class="text-inner-tspan" font-weight="normal"> goes</tspan></tspan><tspan class="text-outer-tspan row" x="0" y="3.2em" dy="1.1em" text-anchor="middle"><tspan font-style="normal" class="text-inner-tspan" font-weight="normal">to</tspan><tspan font-style="normal" class="text-inner-tspan" font-weight="normal"> v2</tspan></tspan></text></g></g></g><g class="edgeLabel" transform="translate(365.7734375, 303.5)"><g class="label" data-id="L_DR_VS_0" transform="translate(0, -19.299999237060547)"><g><rect class="background" style="" x="-73.8984375" y="-1" width="147.796875" height="40.599998474121094"></rect><text xml:space="preserve" y="-10.1" text-anchor="middle" style=""><tspan class="text-outer-tspan row" x="0" y="-0.1em" dy="1.1em" text-anchor="middle"><tspan font-style="normal" class="text-inner-tspan" font-weight="normal">names</tspan><tspan font-style="normal" class="text-inner-tspan" font-weight="normal"> the</tspan><tspan font-style="normal" class="text-inner-tspan" font-weight="normal"> pools</tspan></tspan><tspan class="text-outer-tspan row" x="0" y="1em" dy="1.1em" text-anchor="middle"><tspan font-style="normal" class="text-inner-tspan" font-weight="normal">the</tspan><tspan font-style="normal" class="text-inner-tspan" font-weight="normal"> weights</tspan><tspan font-style="normal" class="text-inner-tspan" font-weight="normal"> refer</tspan><tspan font-style="normal" class="text-inner-tspan" font-weight="normal"> to</tspan></tspan></text></g></g></g><g class="edgeLabel"><g class="label" data-id="L_V1_TEL_0" transform="translate(0, 0)"><text xml:space="preserve" y="-10.1" text-anchor="middle"><tspan class="text-outer-tspan row" x="0" y="-0.1em" dy="1.1em" text-anchor="middle"></tspan></text></g></g><g><rect class="background" style="stroke: none"></rect></g><g class="edgeLabel"><g class="label" data-id="L_V2_TEL_0" transform="translate(0, 0)"><text xml:space="preserve" y="-10.1" text-anchor="middle"><tspan class="text-outer-tspan row" x="0" y="-0.1em" dy="1.1em" text-anchor="middle"></tspan></text></g></g><g><rect class="background" style="stroke: none"></rect></g></g><g class="nodes"><g class="node default caller" id="d1012-flowchart-CL-0" data-look="classic" transform="translate(137.4375, 58.900001525878906)"><rect class="basic label-container" style="fill:#e8eaf6 !important;stroke:#3949ab !important" x="-123.875" y="-50.900001525878906" width="247.75" height="101.80000305175781"></rect><g class="label" style="color:#1a237e !important" transform="translate(0, -35.900001525878906)"><rect></rect><g><rect class="background" style="stroke: none"></rect><text xml:space="preserve" y="-10.1" style="fill:#1a237e !important"><tspan class="text-outer-tspan row" x="0" y="-0.1em" dy="1.1em"><tspan font-style="normal" class="text-inner-tspan" font-weight="normal">parasol-claims</tspan></tspan><tspan class="text-outer-tspan row" x="0" y="1em" dy="1.1em"><tspan font-style="normal" class="text-inner-tspan" font-weight="normal">+</tspan><tspan font-style="normal" class="text-inner-tspan" font-weight="normal"> istio-proxy</tspan><tspan font-style="normal" class="text-inner-tspan" font-weight="normal"> sidecar</tspan></tspan><tspan class="text-outer-tspan row" x="0" y="2.1em" dy="1.1em"><tspan font-style="normal" class="text-inner-tspan" font-weight="normal">(the</tspan><tspan font-style="normal" class="text-inner-tspan" font-weight="normal"> caller</tspan><tspan font-style="normal" class="text-inner-tspan" font-weight="normal"> —</tspan><tspan font-style="normal" class="text-inner-tspan" font-weight="normal"> this</tspan><tspan font-style="normal" class="text-inner-tspan" font-weight="normal"> is</tspan><tspan font-style="normal" class="text-inner-tspan" font-weight="normal"> where</tspan></tspan><tspan class="text-outer-tspan row" x="0" y="3.2em" dy="1.1em"><tspan font-style="normal" class="text-inner-tspan" font-weight="normal">the</tspan><tspan font-style="normal" class="text-inner-tspan" font-weight="normal"> route</tspan><tspan font-style="normal" class="text-inner-tspan" font-weight="normal"> is</tspan><tspan font-style="normal" class="text-inner-tspan" font-weight="normal"> programmed)</tspan></tspan></text></g></g></g><g class="node default caller" id="d1012-flowchart-TEST-1" data-look="classic" transform="translate(137.4375, 185.60000228881836)"><g class="basic label-container outer-path"><path d="M-60.20468807220459 -25.799999237060547 C-28.963629812747488 -25.799999237060547, 2.2774284467096138 -25.799999237060547, 60.20468807220459 -25.799999237060547 C60.20468807220459 -25.799999237060547, 60.20468807220459 -25.799999237060547, 60.20468807220459 -25.799999237060547 C60.62904554645248 -25.786390918823134, 61.053403020700365 -25.772782600585717, 61.857699698825286 -25.746990371586765 C62.34508059657725 -25.699973322541922, 62.83246149432921 -25.65295627349708, 63.50391874610231 -25.58818159996402 C63.888594140436965 -25.525990265410233, 64.27326953477161 -25.46379893085644, 65.13658054685753 -25.32422550149928 C65.70508662091936 -25.194467699943505, 66.27359269498118 -25.06470989838773, 66.74897614354678 -24.956206728419545 C67.191005073502 -24.825014862266038, 67.63303400345721 -24.693822996112534, 68.33447985680552 -24.48563754880318 C68.89732697953526 -24.278504604736863, 69.46017410226503 -24.071371660670543, 69.88657651178644 -23.914451632345997 C70.46365338038238 -23.658996820995668, 71.0407302489783 -23.403542009645335, 71.39888821041056 -23.24499610449772 C71.88516301080814 -22.991306852604176, 72.37143781120574 -22.737617600710628, 72.8652005395184 -22.480021901620034 C73.25618959336082 -22.243002039474035, 73.64717864720323 -22.00598217732804, 74.27948810722664 -21.62267246679901 C74.64895319056141 -21.36494961855035, 75.0184182738962 -21.107226770301693, 75.63593930255584 -20.67647083276321 C75.92127255934568 -20.44892515351016, 76.20660581613552 -20.22137947425711, 76.9289801765865 -19.64530514498651 C77.29859796060055 -19.30962805309562, 77.6682157446146 -18.97395096120473, 78.15329734701088 -18.533412684464313 C78.42831202490676 -18.24943745041184, 78.70332670280266 -17.96546221635937, 79.30385983196044 -17.345362455817106 C79.57242452117431 -17.029891090102762, 79.84098921038819 -16.714419724388417, 80.37593972338968 -16.086036412270357 C80.750334627869 -15.58438134834553, 81.12472953234833 -15.082726284420705, 81.36513161506427 -14.76060939466161 C81.58524027935655 -14.42246337885647, 81.80534894364885 -14.084317363051328, 82.26737070532036 -13.374527866909407 C82.54154384013893 -12.887705702998627, 82.8157169749575 -12.400883539087848, 83.0789495002064 -11.93348753532484 C83.31421851651247 -11.444946389014765, 83.54948753281855 -10.956405242704692, 83.79653304837109 -10.443409943732584 C83.97933645535534 -9.991881994218057, 84.16213986233957 -9.540354044703529, 84.41717264509381 -8.910418140577123 C84.57319622198523 -8.440499985961235, 84.72921979887666 -7.970581831345346, 84.9383179491449 -7.340811518003323 C85.02452297672598 -7.012074386341397, 85.11072800430705 -6.683337254679472, 85.35782746268467 -5.741039926302914 C85.43012590525336 -5.369802703993921, 85.50242434782206 -4.998565481684927, 85.67397733113748 -4.117677170096137 C85.71737024838738 -3.7811302728065757, 85.76076316563729 -3.4445833755170145, 85.88546842687991 -2.4773939951584394 C85.92457764718878 -1.8682363204533403, 85.96368686749766 -1.259078645748241, 85.99143168763487 -0.8269306768952902 C85.99143168763487 -0.23826980599740122, 85.99143168763487 0.35039106490048777, 85.99143168763487 0.826930676895284 C85.96559238017494 1.2293987476973536, 85.939753072715 1.6318668184994234, 85.88546842687991 2.4773939951584216 C85.8073872238128 3.0829763872694342, 85.72930602074568 3.688558779380447, 85.67397733113748 4.117677170096119 C85.5657821489859 4.673236563384601, 85.45758696683433 5.228795956673085, 85.35782746268467 5.741039926302909 C85.19296175777056 6.3697443123888995, 85.02809605285645 6.998448698474891, 84.9383179491449 7.340811518003306 C84.78527766300608 7.801744476195225, 84.63223737686725 8.262677434387145, 84.41717264509383 8.910418140577105 C84.27011456104644 9.273654451348799, 84.12305647699904 9.636890762120494, 83.79653304837109 10.443409943732577 C83.61732709885214 10.815534932301716, 83.43812114933321 11.187659920870853, 83.0789495002064 11.933487535324835 C82.8511852463108 12.33790603174812, 82.6234209924152 12.742324528171407, 82.26737070532037 13.374527866909402 C82.03636507696294 13.729414545763184, 81.80535944860549 14.084301224616967, 81.36513161506429 14.760609394661596 C81.1162982528782 15.094023430805304, 80.86746489069212 15.427437466949014, 80.37593972338968 16.086036412270353 C79.97235857646375 16.560105791867365, 79.56877742953782 17.034175171464376, 79.30385983196045 17.345362455817092 C79.0691871242377 17.587681293528444, 78.83451441651496 17.8300001312398, 78.15329734701088 18.533412684464306 C77.8216653123499 18.8345921238406, 77.49003327768892 19.135771563216895, 76.92898017658653 19.64530514498649 C76.65202050366877 19.866173113931985, 76.375060830751 20.087041082877477, 75.63593930255584 20.676470832763208 C75.30394860575919 20.908053171202916, 74.97195790896255 21.13963550964262, 74.27948810722665 21.622672466799003 C73.92686448551837 21.836434978524984, 73.57424086381008 22.05019749025097, 72.86520053951841 22.48002190162003 C72.3141181000823 22.7675212572887, 71.7630356606462 23.055020612957367, 71.39888821041058 23.244996104497716 C70.84890805968885 23.488456002640707, 70.29892790896713 23.7319159007837, 69.88657651178644 23.914451632345994 C69.51804536874853 24.050074499648485, 69.14951422571063 24.185697366950976, 68.33447985680553 24.485637548803172 C67.92355452519307 24.60759803023467, 67.51262919358061 24.729558511666166, 66.74897614354681 24.95620672841954 C66.26023658857568 25.06775834251805, 65.77149703360453 25.179309956616557, 65.13658054685754 25.324225501499278 C64.73311570836344 25.38945456767045, 64.32965086986934 25.454683633841626, 63.50391874610233 25.588181599964017 C63.01306510388297 25.635533660491046, 62.522211461663616 25.68288572101807, 61.857699698825286 25.746990371586765 C61.474242200578985 25.759287107200784, 61.09078470233268 25.7715838428148, 60.2046880722046 25.799999237060547 C60.2046880722046 25.799999237060547, 60.20468807220459 25.799999237060547, 60.20468807220459 25.799999237060547 C18.983981199012632 25.799999237060547, -22.236725674179326 25.799999237060547, -60.20468807220458 25.799999237060547 C-60.66377922278664 25.785277077428095, -61.12287037336869 25.770554917795643, -61.85769969882527 25.746990371586765 C-62.39282530754662 25.69536744769612, -62.92795091626798 25.643744523805474, -63.503918746102315 25.588181599964017 C-64.13078485268242 25.486834749271406, -64.75765095926255 25.385487898578795, -65.13658054685753 25.324225501499278 C-65.51384876982493 25.2381164915122, -65.89111699279235 25.15200748152512, -66.74897614354678 24.956206728419545 C-67.37822808016769 24.76944805664128, -68.00748001678858 24.582689384863016, -68.3344798568055 24.485637548803183 C-68.70602281259137 24.348906306568548, -69.07756576837726 24.212175064333913, -69.88657651178644 23.914451632345997 C-70.4823341582488 23.65072739477979, -71.07809180471116 23.38700315721358, -71.39888821041056 23.244996104497723 C-71.92100419258018 22.972608531031078, -72.44312017474981 22.700220957564433, -72.8652005395184 22.480021901620038 C-73.2310828727047 22.25822188107924, -73.59696520589101 22.036421860538443, -74.27948810722663 21.622672466799017 C-74.79959268355393 21.25987002931733, -75.31969725988122 20.89706759183564, -75.63593930255584 20.67647083276321 C-76.05069410816789 20.345714912376508, -76.46544891377994 20.014958991989804, -76.9289801765865 19.645305144986512 C-77.28902162946417 19.318325023657838, -77.64906308234184 18.991344902329164, -78.15329734701086 18.533412684464324 C-78.51501051624226 18.159914140029425, -78.87672368547365 17.786415595594526, -79.30385983196044 17.3453624558171 C-79.6696315575534 16.915706173934815, -80.03540328314637 16.486049892052527, -80.37593972338968 16.08603641227036 C-80.7249951253631 15.618333973227273, -81.07405052733652 15.150631534184186, -81.36513161506427 14.760609394661614 C-81.71245352501454 14.227029671986283, -82.05977543496482 13.693449949310953, -82.26737070532036 13.374527866909418 C-82.53913527323459 12.891982357431118, -82.81089984114882 12.40943684795282, -83.07894950020639 11.933487535324842 C-83.32677407506401 11.41887450303658, -83.57459864992161 10.904261470748319, -83.79653304837109 10.443409943732586 C-84.00619699528684 9.925535941274022, -84.21586094220258 9.40766193881546, -84.41717264509381 8.910418140577127 C-84.56622672087268 8.461491012873037, -84.71528079665156 8.012563885168946, -84.9383179491449 7.340811518003316 C-85.0278808160108 6.999269489851601, -85.1174436828767 6.657727461699887, -85.35782746268467 5.741039926302918 C-85.44898193163476 5.272980993748031, -85.54013640058486 4.804922061193145, -85.67397733113748 4.117677170096139 C-85.75285888921972 3.505887382535739, -85.83174044730197 2.8940975949753387, -85.88546842687991 2.477393995158454 C-85.92290411309605 1.8943029648000684, -85.96033979931218 1.3112119344416826, -85.99143168763487 0.8269306768952934 C-85.99143168763487 0.3677333114809254, -85.99143168763487 -0.09146405393344259, -85.99143168763487 -0.8269306768952809 C-85.96395659829285 -1.254877370890122, -85.93648150895083 -1.6828240648849628, -85.88546842687991 -2.4773939951584185 C-85.81117118663056 -3.0536287188828863, -85.7368739463812 -3.6298634426073546, -85.67397733113748 -4.117677170096128 C-85.60318557396202 -4.481177881348925, -85.53239381678657 -4.844678592601722, -85.35782746268467 -5.741039926302906 C-85.2429008354988 -6.179304965277892, -85.12797420831295 -6.617570004252879, -84.9383179491449 -7.340811518003303 C-84.77564941140525 -7.830743235963326, -84.6129808736656 -8.32067495392335, -84.41717264509383 -8.910418140577093 C-84.23563234878097 -9.358826182312722, -84.0540920524681 -9.807234224048349, -83.79653304837109 -10.443409943732574 C-83.52477960938208 -11.007711774385367, -83.25302617039307 -11.572013605038162, -83.0789495002064 -11.933487535324831 C-82.75842497790083 -12.502611281305747, -82.43790045559524 -13.071735027286664, -82.26737070532036 -13.374527866909409 C-81.95916366780287 -13.848016641714077, -81.65095663028538 -14.321505416518745, -81.36513161506429 -14.760609394661605 C-81.12932695069219 -15.076566162673352, -80.8935222863201 -15.392522930685098, -80.37593972338968 -16.086036412270353 C-80.03998199071431 -16.480671481607377, -79.70402425803894 -16.875306550944405, -79.30385983196045 -17.345362455817092 C-79.03368344583039 -17.624341756390216, -78.76350705970032 -17.903321056963335, -78.15329734701089 -18.5334126844643 C-77.80772794160085 -18.847249675192273, -77.4621585361908 -19.161086665920244, -76.92898017658653 -19.645305144986487 C-76.51739340775791 -19.973534640343406, -76.1058066389293 -20.301764135700328, -75.63593930255585 -20.676470832763204 C-75.33670598001237 -20.885203044967778, -75.0374726574689 -21.09393525717235, -74.27948810722665 -21.622672466799 C-73.90009830055318 -21.85266079714644, -73.52070849387971 -22.08264912749388, -72.86520053951841 -22.480021901620027 C-72.40236005568812 -22.72148548557081, -71.93951957185783 -22.962949069521592, -71.39888821041058 -23.244996104497716 C-70.89717614920667 -23.46708915123317, -70.39546408800278 -23.689182197968627, -69.88657651178646 -23.91445163234599 C-69.55775385647053 -24.03546140910556, -69.22893120115458 -24.156471185865133, -68.33447985680553 -24.485637548803172 C-67.86695332670554 -24.624396968840013, -67.39942679660555 -24.763156388876855, -66.74897614354681 -24.956206728419538 C-66.34967091827934 -25.047345540376728, -65.95036569301188 -25.138484352333915, -65.13658054685754 -25.324225501499278 C-64.69311540754734 -25.395921506099434, -64.24965026823712 -25.46761751069959, -63.50391874610233 -25.588181599964017 C-63.03788668116522 -25.633139152782938, -62.571854616228116 -25.678096705601863, -61.857699698825286 -25.746990371586765 C-61.35229882818624 -25.763197593805042, -60.8468979575472 -25.77940481602332, -60.2046880722046 -25.799999237060547 C-60.2046880722046 -25.799999237060547, -60.20468807220459 -25.799999237060547, -60.20468807220459 -25.799999237060547" stroke="none" stroke-width="0" fill="#e8eaf6" style="fill:#e8eaf6 !important;stroke:#3949ab !important"></path><path d="M-60.20468807220459 -25.799999237060547 C-18.687187687481547 -25.799999237060547, 22.830312697241496 -25.799999237060547, 60.20468807220459 -25.799999237060547 M-60.20468807220459 -25.799999237060547 C-28.98320074765875 -25.799999237060547, 2.2382865768870914 -25.799999237060547, 60.20468807220459 -25.799999237060547 M60.20468807220459 -25.799999237060547 C60.20468807220459 -25.799999237060547, 60.20468807220459 -25.799999237060547, 60.20468807220459 -25.799999237060547 M60.20468807220459 -25.799999237060547 C60.20468807220459 -25.799999237060547, 60.20468807220459 -25.799999237060547, 60.20468807220459 -25.799999237060547 M60.20468807220459 -25.799999237060547 C60.54023372902782 -25.789238940946227, 60.875779385851054 -25.778478644831903, 61.857699698825286 -25.746990371586765 M60.20468807220459 -25.799999237060547 C60.58248504443157 -25.787884023498425, 60.96028201665856 -25.775768809936302, 61.857699698825286 -25.746990371586765 M61.857699698825286 -25.746990371586765 C62.34894110301689 -25.699600904128626, 62.840182507208496 -25.652211436670488, 63.50391874610231 -25.58818159996402 M61.857699698825286 -25.746990371586765 C62.287073252305426 -25.705569221279784, 62.716446805785566 -25.664148070972807, 63.50391874610231 -25.58818159996402 M63.50391874610231 -25.58818159996402 C64.02196921568135 -25.504427217583874, 64.54001968526039 -25.420672835203728, 65.13658054685753 -25.32422550149928 M63.50391874610231 -25.58818159996402 C63.92681268693692 -25.519811387201372, 64.34970662777154 -25.451441174438724, 65.13658054685753 -25.32422550149928 M65.13658054685753 -25.32422550149928 C65.47076371432202 -25.24795037427448, 65.80494688178652 -25.171675247049677, 66.74897614354678 -24.956206728419545 M65.13658054685753 -25.32422550149928 C65.62503850705556 -25.212738159570158, 66.1134964672536 -25.10125081764103, 66.74897614354678 -24.956206728419545 M66.74897614354678 -24.956206728419545 C67.17426635452436 -24.829982826195273, 67.59955656550193 -24.703758923971005, 68.33447985680552 -24.48563754880318 M66.74897614354678 -24.956206728419545 C67.1320239837306 -24.84252014011213, 67.51507182391444 -24.728833551804716, 68.33447985680552 -24.48563754880318 M68.33447985680552 -24.48563754880318 C68.71529720284272 -24.345493245224528, 69.09611454887994 -24.20534894164588, 69.88657651178644 -23.914451632345997 M68.33447985680552 -24.48563754880318 C68.86927941549173 -24.288826367573723, 69.40407897417796 -24.092015186344266, 69.88657651178644 -23.914451632345997 M69.88657651178644 -23.914451632345997 C70.29727609869299 -23.732647108192854, 70.70797568559952 -23.550842584039714, 71.39888821041056 -23.24499610449772 M69.88657651178644 -23.914451632345997 C70.45725005798661 -23.661831381872464, 71.02792360418678 -23.409211131398926, 71.39888821041056 -23.24499610449772 M71.39888821041056 -23.24499610449772 C71.78253395477984 -23.044848365397094, 72.16617969914913 -22.844700626296465, 72.8652005395184 -22.480021901620034 M71.39888821041056 -23.24499610449772 C71.84501032285881 -23.012254484188322, 72.29113243530705 -22.77951286387892, 72.8652005395184 -22.480021901620034 M72.8652005395184 -22.480021901620034 C73.15502615951578 -22.304327907573224, 73.44485177951317 -22.12863391352641, 74.27948810722664 -21.62267246679901 M72.8652005395184 -22.480021901620034 C73.36507153944522 -22.17699716389633, 73.86494253937205 -21.873972426172628, 74.27948810722664 -21.62267246679901 M74.27948810722664 -21.62267246679901 C74.5888194820904 -21.406896290433444, 74.89815085695417 -21.19112011406788, 75.63593930255584 -20.67647083276321 M74.27948810722664 -21.62267246679901 C74.60220161530452 -21.397561493606485, 74.92491512338242 -21.172450520413957, 75.63593930255584 -20.67647083276321 M75.63593930255584 -20.67647083276321 C76.11142164618002 -20.297286316839482, 76.58690398980421 -19.918101800915753, 76.9289801765865 -19.64530514498651 M75.63593930255584 -20.67647083276321 C76.13571887524172 -20.277909923239203, 76.6354984479276 -19.879349013715192, 76.9289801765865 -19.64530514498651 M76.9289801765865 -19.64530514498651 C77.33529973027684 -19.276296476951217, 77.7416192839672 -18.90728780891592, 78.15329734701088 -18.533412684464313 M76.9289801765865 -19.64530514498651 C77.24957645065895 -19.354148091386506, 77.57017272473138 -19.062991037786503, 78.15329734701088 -18.533412684464313 M78.15329734701088 -18.533412684464313 C78.57617756178011 -18.096754143603757, 78.99905777654935 -17.660095602743198, 79.30385983196044 -17.345362455817106 M78.15329734701088 -18.533412684464313 C78.54894809146082 -18.124870807289525, 78.94459883591075 -17.716328930114738, 79.30385983196044 -17.345362455817106 M79.30385983196044 -17.345362455817106 C79.63248208232956 -16.959344061397765, 79.96110433269868 -16.573325666978423, 80.37593972338968 -16.086036412270357 M79.30385983196044 -17.345362455817106 C79.618345131519 -16.97595012823513, 79.93283043107758 -16.60653780065315, 80.37593972338968 -16.086036412270357 M80.37593972338968 -16.086036412270357 C80.6894304039963 -15.66598745984602, 81.0029210846029 -15.245938507421684, 81.36513161506427 -14.76060939466161 M80.37593972338968 -16.086036412270357 C80.63832289902703 -15.73446686051534, 80.9007060746644 -15.382897308760324, 81.36513161506427 -14.76060939466161 M81.36513161506427 -14.76060939466161 C81.60591499071276 -14.390701470275996, 81.84669836636125 -14.020793545890381, 82.26737070532036 -13.374527866909407 M81.36513161506427 -14.76060939466161 C81.58754595398815 -14.418921243462, 81.80996029291205 -14.077233092262388, 82.26737070532036 -13.374527866909407 M82.26737070532036 -13.374527866909407 C82.48655920523372 -12.985336490070852, 82.70574770514709 -12.596145113232296, 83.0789495002064 -11.93348753532484 M82.26737070532036 -13.374527866909407 C82.53529417780933 -12.898802611311764, 82.8032176502983 -12.423077355714122, 83.0789495002064 -11.93348753532484 M83.0789495002064 -11.93348753532484 C83.31509236832716 -11.443131817024142, 83.55123523644791 -10.952776098723445, 83.79653304837109 -10.443409943732584 M83.0789495002064 -11.93348753532484 C83.34407536399857 -11.382948006375702, 83.60920122779072 -10.832408477426565, 83.79653304837109 -10.443409943732584 M83.79653304837109 -10.443409943732584 C83.93998626913726 -10.089077714960782, 84.08343948990344 -9.734745486188979, 84.41717264509381 -8.910418140577123 M83.79653304837109 -10.443409943732584 C83.99542118857013 -9.952152392200343, 84.19430932876917 -9.460894840668102, 84.41717264509381 -8.910418140577123 M84.41717264509381 -8.910418140577123 C84.55370962297104 -8.499190517424061, 84.69024660084827 -8.087962894271, 84.9383179491449 -7.340811518003323 M84.41717264509381 -8.910418140577123 C84.60532980521856 -8.34371875305365, 84.79348696534332 -7.777019365530179, 84.9383179491449 -7.340811518003323 M84.9383179491449 -7.340811518003323 C85.02532289409736 -7.009023954717966, 85.1123278390498 -6.677236391432609, 85.35782746268467 -5.741039926302914 M84.9383179491449 -7.340811518003323 C85.02420292704552 -7.013294874483357, 85.11008790494616 -6.685778230963391, 85.35782746268467 -5.741039926302914 M85.35782746268467 -5.741039926302914 C85.45826621691354 -5.225308151075887, 85.55870497114242 -4.70957637584886, 85.67397733113748 -4.117677170096137 M85.35782746268467 -5.741039926302914 C85.43892718194758 -5.324610008319604, 85.5200269012105 -4.908180090336294, 85.67397733113748 -4.117677170096137 M85.67397733113748 -4.117677170096137 C85.7469074096819 -3.5520458825786183, 85.8198374882263 -2.9864145950611, 85.88546842687991 -2.4773939951584394 M85.67397733113748 -4.117677170096137 C85.75385737516451 -3.498143322721345, 85.83373741919154 -2.878609475346553, 85.88546842687991 -2.4773939951584394 M85.88546842687991 -2.4773939951584394 C85.90907286824932 -2.1097357676676913, 85.93267730961874 -1.7420775401769437, 85.99143168763487 -0.8269306768952902 M85.88546842687991 -2.4773939951584394 C85.90794142100125 -2.127358971844248, 85.93041441512258 -1.777323948530056, 85.99143168763487 -0.8269306768952902 M85.99143168763487 -0.8269306768952902 C85.99143168763487 -0.2999472017556468, 85.99143168763487 0.22703627338399657, 85.99143168763487 0.826930676895284 M85.99143168763487 -0.8269306768952902 C85.99143168763487 -0.32469132049036753, 85.99143168763487 0.17754803591455515, 85.99143168763487 0.826930676895284 M85.99143168763487 0.826930676895284 C85.95065359666633 1.462082359213014, 85.90987550569777 2.0972340415307444, 85.88546842687991 2.4773939951584216 M85.99143168763487 0.826930676895284 C85.95579567693352 1.3819903084389675, 85.92015966623217 1.937049939982651, 85.88546842687991 2.4773939951584216 M85.88546842687991 2.4773939951584216 C85.80995805036393 3.0630375642059278, 85.73444767384795 3.6486811332534335, 85.67397733113748 4.117677170096119 M85.88546842687991 2.4773939951584216 C85.83149102445489 2.8960320693231703, 85.77751362202987 3.314670143487919, 85.67397733113748 4.117677170096119 M85.67397733113748 4.117677170096119 C85.56660029923917 4.6690355347501695, 85.45922326734087 5.22039389940422, 85.35782746268467 5.741039926302909 M85.67397733113748 4.117677170096119 C85.60317122158972 4.481251577747333, 85.53236511204194 4.844825985398548, 85.35782746268467 5.741039926302909 M85.35782746268467 5.741039926302909 C85.26986684589929 6.076471880478039, 85.1819062291139 6.4119038346531685, 84.9383179491449 7.340811518003306 M85.35782746268467 5.741039926302909 C85.22817672812488 6.235454368163208, 85.09852599356508 6.729868810023508, 84.9383179491449 7.340811518003306 M84.9383179491449 7.340811518003306 C84.75561695473436 7.891077803717525, 84.57291596032384 8.441344089431745, 84.41717264509383 8.910418140577105 M84.9383179491449 7.340811518003306 C84.78491756159428 7.8028290442731745, 84.63151717404367 8.264846570543043, 84.41717264509383 8.910418140577105 M84.41717264509383 8.910418140577105 C84.23361881762457 9.363799643197996, 84.05006499015532 9.817181145818886, 83.79653304837109 10.443409943732577 M84.41717264509383 8.910418140577105 C84.20366424318568 9.437788021194347, 83.99015584127754 9.96515790181159, 83.79653304837109 10.443409943732577 M83.79653304837109 10.443409943732577 C83.52717238075309 11.002743133436379, 83.25781171313507 11.562076323140179, 83.0789495002064 11.933487535324835 M83.79653304837109 10.443409943732577 C83.53568007831048 10.985076717422883, 83.27482710824987 11.526743491113189, 83.0789495002064 11.933487535324835 M83.0789495002064 11.933487535324835 C82.80848156778093 12.413730737194252, 82.53801363535547 12.893973939063667, 82.26737070532037 13.374527866909402 M83.0789495002064 11.933487535324835 C82.85197548849426 12.336502876730703, 82.6250014767821 12.739518218136574, 82.26737070532037 13.374527866909402 M82.26737070532037 13.374527866909402 C81.97255762506997 13.827439926570683, 81.67774454481957 14.280351986231965, 81.36513161506429 14.760609394661596 M82.26737070532037 13.374527866909402 C82.00743341568726 13.773861346721459, 81.74749612605414 14.173194826533518, 81.36513161506429 14.760609394661596 M81.36513161506429 14.760609394661596 C80.97429200177484 15.284298870248197, 80.58345238848538 15.807988345834797, 80.37593972338968 16.086036412270353 M81.36513161506429 14.760609394661596 C81.1481794378337 15.051305547400634, 80.93122726060312 15.342001700139672, 80.37593972338968 16.086036412270353 M80.37593972338968 16.086036412270353 C79.98341028690702 16.54712382392056, 79.59088085042436 17.00821123557077, 79.30385983196045 17.345362455817092 M80.37593972338968 16.086036412270353 C80.04307540063837 16.47703778629057, 79.71021107788705 16.868039160310786, 79.30385983196045 17.345362455817092 M79.30385983196045 17.345362455817092 C79.01589356481172 17.642711269118386, 78.72792729766297 17.940060082419677, 78.15329734701088 18.533412684464306 M79.30385983196045 17.345362455817092 C79.03163837948466 17.626453455295245, 78.75941692700886 17.9075444547734, 78.15329734701088 18.533412684464306 M78.15329734701088 18.533412684464306 C77.8292292811779 18.827722727482655, 77.50516121534493 19.122032770501, 76.92898017658653 19.64530514498649 M78.15329734701088 18.533412684464306 C77.74208299909307 18.906866675107832, 77.33086865117525 19.280320665751358, 76.92898017658653 19.64530514498649 M76.92898017658653 19.64530514498649 C76.62665718995153 19.886399681675357, 76.32433420331652 20.127494218364227, 75.63593930255584 20.676470832763208 M76.92898017658653 19.64530514498649 C76.6443610965147 19.87228128731197, 76.35974201644285 20.099257429637454, 75.63593930255584 20.676470832763208 M75.63593930255584 20.676470832763208 C75.15264525117223 21.013595841546127, 74.66935119978862 21.350720850329047, 74.27948810722665 21.622672466799003 M75.63593930255584 20.676470832763208 C75.22106403670388 20.965869858560733, 74.80618877085193 21.25526888435826, 74.27948810722665 21.622672466799003 M74.27948810722665 21.622672466799003 C73.95783294089179 21.817661718886768, 73.63617777455694 22.012650970974533, 72.86520053951841 22.48002190162003 M74.27948810722665 21.622672466799003 C73.79206962576873 21.91814841464773, 73.30465114431082 22.213624362496464, 72.86520053951841 22.48002190162003 M72.86520053951841 22.48002190162003 C72.49175097830195 22.674850298500797, 72.11830141708549 22.869678695381566, 71.39888821041058 23.244996104497716 M72.86520053951841 22.48002190162003 C72.57149374279749 22.633248549341157, 72.27778694607655 22.786475197062288, 71.39888821041058 23.244996104497716 M71.39888821041058 23.244996104497716 C70.96328459221532 23.437824904550535, 70.52768097402004 23.630653704603354, 69.88657651178644 23.914451632345994 M71.39888821041058 23.244996104497716 C70.98470954471365 23.42834071362815, 70.57053087901674 23.611685322758586, 69.88657651178644 23.914451632345994 M69.88657651178644 23.914451632345994 C69.33849031100968 24.116152420685143, 68.79040411023291 24.317853209024296, 68.33447985680553 24.485637548803172 M69.88657651178644 23.914451632345994 C69.4303972244079 24.082329826976405, 68.97421793702935 24.250208021606817, 68.33447985680553 24.485637548803172 M68.33447985680553 24.485637548803172 C67.83927610614002 24.632611422623167, 67.34407235547451 24.77958529644316, 66.74897614354681 24.95620672841954 M68.33447985680553 24.485637548803172 C67.99500398776465 24.586392204789306, 67.65552811872377 24.687146860775442, 66.74897614354681 24.95620672841954 M66.74897614354681 24.95620672841954 C66.18687162319455 25.08450341711515, 65.62476710284227 25.212800105810764, 65.13658054685754 25.324225501499278 M66.74897614354681 24.95620672841954 C66.32623116599956 25.052695510875914, 65.9034861884523 25.149184293332283, 65.13658054685754 25.324225501499278 M65.13658054685754 25.324225501499278 C64.77710193417862 25.38234321579893, 64.41762332149968 25.440460930098585, 63.50391874610233 25.588181599964017 M65.13658054685754 25.324225501499278 C64.70231570850763 25.394434072789572, 64.26805087015772 25.464642644079866, 63.50391874610233 25.588181599964017 M63.50391874610233 25.588181599964017 C63.02828162274579 25.63406574121689, 62.55264449938925 25.679949882469764, 61.857699698825286 25.746990371586765 M63.50391874610233 25.588181599964017 C63.07308965518086 25.629743164217423, 62.64226056425938 25.671304728470826, 61.857699698825286 25.746990371586765 M61.857699698825286 25.746990371586765 C61.376944146205425 25.762407266425367, 60.89618859358557 25.777824161263972, 60.2046880722046 25.799999237060547 M61.857699698825286 25.746990371586765 C61.264439091321776 25.766015084557683, 60.67117848381827 25.7850397975286, 60.2046880722046 25.799999237060547 M60.2046880722046 25.799999237060547 C60.2046880722046 25.799999237060547, 60.20468807220459 25.799999237060547, 60.20468807220459 25.799999237060547 M60.2046880722046 25.799999237060547 C60.2046880722046 25.799999237060547, 60.20468807220459 25.799999237060547, 60.20468807220459 25.799999237060547 M60.20468807220459 25.799999237060547 C12.267039959205299 25.799999237060547, -35.67060815379399 25.799999237060547, -60.20468807220458 25.799999237060547 M60.20468807220459 25.799999237060547 C34.812526771996644 25.799999237060547, 9.420365471788706 25.799999237060547, -60.20468807220458 25.799999237060547 M-60.20468807220458 25.799999237060547 C-60.5902248431731 25.787635823217386, -60.97576161414161 25.775272409374228, -61.85769969882527 25.746990371586765 M-60.20468807220458 25.799999237060547 C-60.81978284307428 25.780274344968095, -61.43487761394398 25.760549452875647, -61.85769969882527 25.746990371586765 M-61.85769969882527 25.746990371586765 C-62.2944098927622 25.70486146439852, -62.73112008669913 25.662732557210276, -63.503918746102315 25.588181599964017 M-61.85769969882527 25.746990371586765 C-62.35771926859205 25.69875408505288, -62.857738838358834 25.65051779851899, -63.503918746102315 25.588181599964017 M-63.503918746102315 25.588181599964017 C-64.04129157645016 25.501303328141915, -64.57866440679801 25.414425056319814, -65.13658054685753 25.324225501499278 M-63.503918746102315 25.588181599964017 C-63.962791781627026 25.51399456619392, -64.42166481715174 25.439807532423824, -65.13658054685753 25.324225501499278 M-65.13658054685753 25.324225501499278 C-65.55531591913306 25.228651885281057, -65.97405129140859 25.13307826906284, -66.74897614354678 24.956206728419545 M-65.13658054685753 25.324225501499278 C-65.60617334494557 25.21704400971507, -66.07576614303362 25.109862517930864, -66.74897614354678 24.956206728419545 M-66.74897614354678 24.956206728419545 C-67.19722387238106 24.823169155401878, -67.64547160121532 24.69013158238421, -68.3344798568055 24.485637548803183 M-66.74897614354678 24.956206728419545 C-67.15604783179778 24.835389988109547, -67.56311952004877 24.71457324779955, -68.3344798568055 24.485637548803183 M-68.3344798568055 24.485637548803183 C-68.89183664908141 24.28052509709594, -69.44919344135732 24.075412645388695, -69.88657651178644 23.914451632345997 M-68.3344798568055 24.485637548803183 C-68.75618170574596 24.330447370223933, -69.17788355468642 24.175257191644686, -69.88657651178644 23.914451632345997 M-69.88657651178644 23.914451632345997 C-70.40772547441743 23.683754445923963, -70.92887443704842 23.453057259501932, -71.39888821041056 23.244996104497723 M-69.88657651178644 23.914451632345997 C-70.27462253642801 23.742675168213513, -70.66266856106957 23.570898704081028, -71.39888821041056 23.244996104497723 M-71.39888821041056 23.244996104497723 C-71.86268798663653 23.00303205831857, -72.3264877628625 22.76106801213942, -72.8652005395184 22.480021901620038 M-71.39888821041056 23.244996104497723 C-71.85195093822527 23.008633569597315, -72.30501366604 22.772271034696907, -72.8652005395184 22.480021901620038 M-72.8652005395184 22.480021901620038 C-73.34897573459874 22.186754535383724, -73.83275092967908 21.893487169147406, -74.27948810722663 21.622672466799017 M-72.8652005395184 22.480021901620038 C-73.15179828029042 22.30628466692876, -73.43839602106246 22.132547432237484, -74.27948810722663 21.622672466799017 M-74.27948810722663 21.622672466799017 C-74.60514363737279 21.395509266369743, -74.93079916751896 21.168346065940465, -75.63593930255584 20.67647083276321 M-74.27948810722663 21.622672466799017 C-74.74976099490613 21.294630458138993, -75.22003388258564 20.96658844947897, -75.63593930255584 20.67647083276321 M-75.63593930255584 20.67647083276321 C-75.99739120959391 20.388222555539546, -76.358843116632 20.09997427831588, -76.9289801765865 19.645305144986512 M-75.63593930255584 20.67647083276321 C-76.02685294892154 20.36472760243558, -76.41776659528725 20.052984372107943, -76.9289801765865 19.645305144986512 M-76.9289801765865 19.645305144986512 C-77.36257774426065 19.25152330638783, -77.79617531193479 18.85774146778915, -78.15329734701086 18.533412684464324 M-76.9289801765865 19.645305144986512 C-77.40992075969649 19.20852763239655, -77.89086134280646 18.771750119806587, -78.15329734701086 18.533412684464324 M-78.15329734701086 18.533412684464324 C-78.5071332993866 18.168048013164427, -78.86096925176233 17.802683341864533, -79.30385983196044 17.3453624558171 M-78.15329734701086 18.533412684464324 C-78.55159124387735 18.122141535412595, -78.94988514074383 17.710870386360867, -79.30385983196044 17.3453624558171 M-79.30385983196044 17.3453624558171 C-79.59947263447559 16.99811883713782, -79.89508543699075 16.650875218458545, -80.37593972338968 16.08603641227036 M-79.30385983196044 17.3453624558171 C-79.71039645834915 16.86782140187156, -80.11693308473787 16.390280347926023, -80.37593972338968 16.08603641227036 M-80.37593972338968 16.08603641227036 C-80.76552039127144 15.56403380883778, -81.15510105915318 15.042031205405198, -81.36513161506427 14.760609394661614 M-80.37593972338968 16.08603641227036 C-80.71168473972278 15.636168677384218, -81.04742975605589 15.186300942498073, -81.36513161506427 14.760609394661614 M-81.36513161506427 14.760609394661614 C-81.59401533907976 14.408982530688169, -81.82289906309525 14.057355666714724, -82.26737070532036 13.374527866909418 M-81.36513161506427 14.760609394661614 C-81.65562633404988 14.314331497545409, -81.9461210530355 13.868053600429203, -82.26737070532036 13.374527866909418 M-82.26737070532036 13.374527866909418 C-82.45236505666432 13.046051663388846, -82.63735940800827 12.717575459868275, -83.07894950020639 11.933487535324842 M-82.26737070532036 13.374527866909418 C-82.4829673126861 12.991714259007722, -82.69856392005184 12.608900651106026, -83.07894950020639 11.933487535324842 M-83.07894950020639 11.933487535324842 C-83.25954676540574 11.55847344997595, -83.4401440306051 11.183459364627057, -83.79653304837109 10.443409943732586 M-83.07894950020639 11.933487535324842 C-83.35140240144797 11.367733256338498, -83.62385530268956 10.801978977352157, -83.79653304837109 10.443409943732586 M-83.79653304837109 10.443409943732586 C-84.03108252630797 9.864068198522812, -84.26563200424485 9.28472645331304, -84.41717264509381 8.910418140577127 M-83.79653304837109 10.443409943732586 C-83.96671652421372 10.023053468127587, -84.13690000005637 9.602696992522588, -84.41717264509381 8.910418140577127 M-84.41717264509381 8.910418140577127 C-84.6079524783068 8.335819679578114, -84.79873231151977 7.7612212185791005, -84.9383179491449 7.340811518003316 M-84.41717264509381 8.910418140577127 C-84.54772406812287 8.517218054958077, -84.67827549115194 8.124017969339027, -84.9383179491449 7.340811518003316 M-84.9383179491449 7.340811518003316 C-85.07048477849118 6.836802116239789, -85.20265160783745 6.332792714476263, -85.35782746268467 5.741039926302918 M-84.9383179491449 7.340811518003316 C-85.03678001580037 6.965332984116389, -85.13524208245583 6.589854450229463, -85.35782746268467 5.741039926302918 M-85.35782746268467 5.741039926302918 C-85.48266549332065 5.100023023514301, -85.60750352395662 4.459006120725685, -85.67397733113748 4.117677170096139 M-85.35782746268467 5.741039926302918 C-85.44263476273144 5.305572364591942, -85.52744206277822 4.870104802880967, -85.67397733113748 4.117677170096139 M-85.67397733113748 4.117677170096139 C-85.74075961276344 3.5997269814583186, -85.8075418943894 3.0817767928204973, -85.88546842687991 2.477393995158454 M-85.67397733113748 4.117677170096139 C-85.74674899003978 3.5532745540393944, -85.81952064894206 2.9888719379826494, -85.88546842687991 2.477393995158454 M-85.88546842687991 2.477393995158454 C-85.92549645275949 1.8539251820431424, -85.96552447863905 1.2304563689278307, -85.99143168763487 0.8269306768952934 M-85.88546842687991 2.477393995158454 C-85.91724235619445 1.982489398630373, -85.94901628550899 1.4875848021022922, -85.99143168763487 0.8269306768952934 M-85.99143168763487 0.8269306768952934 C-85.99143168763487 0.22055013560823955, -85.99143168763487 -0.3858304056788143, -85.99143168763487 -0.8269306768952809 M-85.99143168763487 0.8269306768952934 C-85.99143168763487 0.4209241934738863, -85.99143168763487 0.014917710052479216, -85.99143168763487 -0.8269306768952809 M-85.99143168763487 -0.8269306768952809 C-85.9688446542662 -1.1787419535373669, -85.94625762089755 -1.5305532301794527, -85.88546842687991 -2.4773939951584185 M-85.99143168763487 -0.8269306768952809 C-85.9589715285467 -1.3325238560623496, -85.92651136945854 -1.838117035229418, -85.88546842687991 -2.4773939951584185 M-85.88546842687991 -2.4773939951584185 C-85.8145998718832 -3.0270365131337806, -85.74373131688651 -3.576679031109143, -85.67397733113748 -4.117677170096128 M-85.88546842687991 -2.4773939951584185 C-85.82472471418453 -2.948510235621055, -85.76398100148913 -3.4196264760836907, -85.67397733113748 -4.117677170096128 M-85.67397733113748 -4.117677170096128 C-85.57791606005443 -4.610931494550695, -85.4818547889714 -5.104185819005263, -85.35782746268467 -5.741039926302906 M-85.67397733113748 -4.117677170096128 C-85.5684308106746 -4.659636245407996, -85.46288429021172 -5.201595320719863, -85.35782746268467 -5.741039926302906 M-85.35782746268467 -5.741039926302906 C-85.25529592303141 -6.132037124451149, -85.15276438337816 -6.523034322599392, -84.9383179491449 -7.340811518003303 M-85.35782746268467 -5.741039926302906 C-85.23633286573718 -6.204351480555052, -85.11483826878971 -6.667663034807196, -84.9383179491449 -7.340811518003303 M-84.9383179491449 -7.340811518003303 C-84.83327036839503 -7.657198094162849, -84.72822278764517 -7.973584670322396, -84.41717264509383 -8.910418140577093 M-84.9383179491449 -7.340811518003303 C-84.75037684146355 -7.906860189990541, -84.56243573378221 -8.472908861977778, -84.41717264509383 -8.910418140577093 M-84.41717264509383 -8.910418140577093 C-84.19503584691867 -9.45910032679255, -83.97289904874353 -10.007782513008008, -83.79653304837109 -10.443409943732574 M-84.41717264509383 -8.910418140577093 C-84.25013367402276 -9.323007628601424, -84.08309470295171 -9.735597116625755, -83.79653304837109 -10.443409943732574 M-83.79653304837109 -10.443409943732574 C-83.52839252631803 -11.000209475063835, -83.26025200426496 -11.557009006395099, -83.0789495002064 -11.933487535324831 M-83.79653304837109 -10.443409943732574 C-83.58619703672382 -10.88017717238783, -83.37586102507653 -11.316944401043088, -83.0789495002064 -11.933487535324831 M-83.0789495002064 -11.933487535324831 C-82.78515099776833 -12.455156526728018, -82.49135249533025 -12.976825518131207, -82.26737070532036 -13.374527866909409 M-83.0789495002064 -11.933487535324831 C-82.91121227040342 -12.23132197207635, -82.74347504060044 -12.529156408827868, -82.26737070532036 -13.374527866909409 M-82.26737070532036 -13.374527866909409 C-82.03351561592143 -13.733792083110348, -81.7996605265225 -14.093056299311288, -81.36513161506429 -14.760609394661605 M-82.26737070532036 -13.374527866909409 C-82.08114866405052 -13.660614929919694, -81.89492662278069 -13.946701992929977, -81.36513161506429 -14.760609394661605 M-81.36513161506429 -14.760609394661605 C-81.09341411794911 -15.124686086822713, -80.82169662083393 -15.48876277898382, -80.37593972338968 -16.086036412270353 M-81.36513161506429 -14.760609394661605 C-81.09834932331971 -15.118073361232563, -80.83156703157515 -15.47553732780352, -80.37593972338968 -16.086036412270353 M-80.37593972338968 -16.086036412270353 C-80.04065684106587 -16.47987876398436, -79.70537395874207 -16.873721115698366, -79.30385983196045 -17.345362455817092 M-80.37593972338968 -16.086036412270353 C-80.00037736275019 -16.527193331181213, -79.6248150021107 -16.968350250092072, -79.30385983196045 -17.345362455817092 M-79.30385983196045 -17.345362455817092 C-79.01748500479435 -17.641067976676666, -78.73111017762824 -17.93677349753624, -78.15329734701089 -18.5334126844643 M-79.30385983196045 -17.345362455817092 C-79.02434205505696 -17.633987509306213, -78.74482427815349 -17.922612562795333, -78.15329734701089 -18.5334126844643 M-78.15329734701089 -18.5334126844643 C-77.86694085523882 -18.793474073714098, -77.58058436346677 -19.053535462963897, -76.92898017658653 -19.645305144986487 M-78.15329734701089 -18.5334126844643 C-77.70046619661484 -18.944661953998303, -77.24763504621879 -19.355911223532306, -76.92898017658653 -19.645305144986487 M-76.92898017658653 -19.645305144986487 C-76.57124661883117 -19.930588137606623, -76.21351306107579 -20.215871130226763, -75.63593930255585 -20.676470832763204 M-76.92898017658653 -19.645305144986487 C-76.62065556098315 -19.891185821067584, -76.31233094537977 -20.137066497148684, -75.63593930255585 -20.676470832763204 M-75.63593930255585 -20.676470832763204 C-75.359999335098 -20.868954608813137, -75.08405936764014 -21.061438384863067, -74.27948810722665 -21.622672466799 M-75.63593930255585 -20.676470832763204 C-75.17228097666116 -20.999898809461907, -74.70862265076647 -21.32332678616061, -74.27948810722665 -21.622672466799 M-74.27948810722665 -21.622672466799 C-73.7310025767395 -21.955167618639067, -73.18251704625234 -22.287662770479134, -72.86520053951841 -22.480021901620027 M-74.27948810722665 -21.622672466799 C-73.92907278827714 -21.83509629241519, -73.57865746932761 -22.04752011803138, -72.86520053951841 -22.480021901620027 M-72.86520053951841 -22.480021901620027 C-72.39097334084512 -22.727425927410863, -71.91674614217183 -22.974829953201702, -71.39888821041058 -23.244996104497716 M-72.86520053951841 -22.480021901620027 C-72.34929961781887 -22.749167082020364, -71.83339869611933 -23.018312262420704, -71.39888821041058 -23.244996104497716 M-71.39888821041058 -23.244996104497716 C-70.81431640419545 -23.50376870240264, -70.22974459798033 -23.762541300307557, -69.88657651178646 -23.91445163234599 M-71.39888821041058 -23.244996104497716 C-71.07681219291347 -23.38756960339808, -70.75473617541635 -23.53014310229845, -69.88657651178646 -23.91445163234599 M-69.88657651178646 -23.91445163234599 C-69.5574967851508 -24.035556013727557, -69.22841705851516 -24.15666039510912, -68.33447985680553 -24.485637548803172 M-69.88657651178646 -23.91445163234599 C-69.55619478072342 -24.036035163392434, -69.22581304966037 -24.157618694438874, -68.33447985680553 -24.485637548803172 M-68.33447985680553 -24.485637548803172 C-67.99075479025166 -24.58765334430667, -67.64702972369777 -24.68966913981017, -66.74897614354681 -24.956206728419538 M-68.33447985680553 -24.485637548803172 C-67.77625492058726 -24.651315779690268, -67.21802998436901 -24.816994010577364, -66.74897614354681 -24.956206728419538 M-66.74897614354681 -24.956206728419538 C-66.31231539661776 -25.055871694428426, -65.8756546496887 -25.15553666043731, -65.13658054685754 -25.324225501499278 M-66.74897614354681 -24.956206728419538 C-66.3697615210864 -25.042759991389453, -65.990546898626 -25.129313254359367, -65.13658054685754 -25.324225501499278 M-65.13658054685754 -25.324225501499278 C-64.79471492893128 -25.379495683398133, -64.45284931100501 -25.43476586529699, -63.50391874610233 -25.588181599964017 M-65.13658054685754 -25.324225501499278 C-64.7459855301149 -25.387373874696635, -64.35539051337226 -25.45052224789399, -63.50391874610233 -25.588181599964017 M-63.50391874610233 -25.588181599964017 C-63.00775027991471 -25.63604637516725, -62.511581813727084 -25.683911150370488, -61.857699698825286 -25.746990371586765 M-63.50391874610233 -25.588181599964017 C-63.00424656560314 -25.636384374273057, -62.50457438510395 -25.684587148582096, -61.857699698825286 -25.746990371586765 M-61.857699698825286 -25.746990371586765 C-61.25276738984718 -25.766389373306385, -60.64783508086907 -25.785788375026, -60.2046880722046 -25.799999237060547 M-61.857699698825286 -25.746990371586765 C-61.375835108859064 -25.762442831094457, -60.89397051889284 -25.777895290602146, -60.2046880722046 -25.799999237060547 M-60.2046880722046 -25.799999237060547 C-60.2046880722046 -25.799999237060547, -60.20468807220459 -25.799999237060547, -60.20468807220459 -25.799999237060547 M-60.2046880722046 -25.799999237060547 C-60.2046880722046 -25.799999237060547, -60.2046880722046 -25.799999237060547, -60.20468807220459 -25.799999237060547" stroke="#3949ab" stroke-width="1.3" fill="none" stroke-dasharray="0 0" style="fill:#e8eaf6 !important;stroke:#3949ab !important"></path></g><g class="label" style="color:#1a237e !important" transform="translate(0, -18.299999237060547)"><rect></rect><g><rect class="background" style="stroke: none"></rect><text xml:space="preserve" y="-10.1" style="fill:#1a237e !important"><tspan class="text-outer-tspan row" x="0" y="-0.1em" dy="1.1em"><tspan font-style="normal" class="text-inner-tspan" font-weight="normal">a</tspan><tspan font-style="normal" class="text-inner-tspan" font-weight="normal"> test</tspan><tspan font-style="normal" class="text-inner-tspan" font-weight="normal"> user's</tspan><tspan font-style="normal" class="text-inner-tspan" font-weight="normal"> request</tspan></tspan><tspan class="text-outer-tspan row" x="0" y="1em" dy="1.1em"><tspan font-style="normal" class="text-inner-tspan" font-weight="normal">x-parasol-test:</tspan><tspan font-style="normal" class="text-inner-tspan" font-weight="normal"> true</tspan></tspan></text></g></g></g><g class="node default policy" id="d1012-flowchart-VS-2" data-look="classic" transform="translate(592.6343765258789, 185.60000228881836)"><polygon points="127.9625015258789,0 255.9250030517578,-127.9625015258789 127.9625015258789,-255.9250030517578 0,-127.9625015258789" class="label-container" transform="translate(-127.4625015258789, 127.9625015258789)" style="fill:#fef7e0 !important;stroke:#b06000 !important"></polygon><g class="label" style="color:#7a4100 !important" transform="translate(0, -35.900001525878906)"><rect></rect><g><rect class="background" style="stroke: none"></rect><text xml:space="preserve" y="-10.1" style="fill:#7a4100 !important"><tspan class="text-outer-tspan row" x="0" y="-0.1em" dy="1.1em"><tspan font-style="normal" class="text-inner-tspan" font-weight="normal">VirtualService</tspan></tspan><tspan class="text-outer-tspan row" x="0" y="1em" dy="1.1em"><tspan font-style="normal" class="text-inner-tspan" font-weight="normal">parasol-fraud</tspan></tspan><tspan class="text-outer-tspan row" x="0" y="2.1em" dy="1.1em"><tspan font-style="normal" class="text-inner-tspan" font-weight="normal">rule</tspan><tspan font-style="normal" class="text-inner-tspan" font-weight="normal"> 1:</tspan><tspan font-style="normal" class="text-inner-tspan" font-weight="normal"> header</tspan><tspan font-style="normal" class="text-inner-tspan" font-weight="normal"> match</tspan></tspan><tspan class="text-outer-tspan row" x="0" y="3.2em" dy="1.1em"><tspan font-style="normal" class="text-inner-tspan" font-weight="normal">rule</tspan><tspan font-style="normal" class="text-inner-tspan" font-weight="normal"> 2:</tspan><tspan font-style="normal" class="text-inner-tspan" font-weight="normal"> weighted</tspan><tspan font-style="normal" class="text-inner-tspan" font-weight="normal"> split</tspan></tspan></text></g></g></g><g class="node default policy" id="d1012-flowchart-DR-3" data-look="classic" transform="translate(137.4375, 303.5)"><rect class="basic label-container" style="fill:#fef7e0 !important;stroke:#b06000 !important" x="-129.4375" y="-42.099998474121094" width="258.875" height="84.19999694824219"></rect><g class="label" style="color:#7a4100 !important" transform="translate(0, -27.099998474121094)"><rect></rect><g><rect class="background" style="stroke: none"></rect><text xml:space="preserve" y="-10.1" style="fill:#7a4100 !important"><tspan class="text-outer-tspan row" x="0" y="-0.1em" dy="1.1em"><tspan font-style="normal" class="text-inner-tspan" font-weight="normal">DestinationRule</tspan></tspan><tspan class="text-outer-tspan row" x="0" y="1em" dy="1.1em"><tspan font-style="normal" class="text-inner-tspan" font-weight="normal">defines</tspan><tspan font-style="normal" class="text-inner-tspan" font-weight="normal"> the</tspan><tspan font-style="normal" class="text-inner-tspan" font-weight="normal"> subsets</tspan><tspan font-style="normal" class="text-inner-tspan" font-weight="normal"> v1</tspan><tspan font-style="normal" class="text-inner-tspan" font-weight="normal"> /</tspan><tspan font-style="normal" class="text-inner-tspan" font-weight="normal"> v2,</tspan></tspan><tspan class="text-outer-tspan row" x="0" y="2.1em" dy="1.1em"><tspan font-style="normal" class="text-inner-tspan" font-weight="normal">by</tspan><tspan font-style="normal" class="text-inner-tspan" font-weight="normal"> the</tspan><tspan font-style="normal" class="text-inner-tspan" font-weight="normal"> version</tspan><tspan font-style="normal" class="text-inner-tspan" font-weight="normal"> label</tspan></tspan></text></g></g></g><g class="node default good" id="d1012-flowchart-V1-4" data-look="classic" transform="translate(1051.3156280517578, 127.30000305175781)"><rect class="basic label-container" style="fill:#e6f4ea !important;stroke:#137333 !important" x="-88.421875" y="-33.29999923706055" width="176.84375" height="66.5999984741211"></rect><g class="label" style="color:#0d652d !important" transform="translate(0, -18.299999237060547)"><rect></rect><g><rect class="background" style="stroke: none"></rect><text xml:space="preserve" y="-10.1" style="fill:#0d652d !important"><tspan class="text-outer-tspan row" x="0" y="-0.1em" dy="1.1em"><tspan font-style="normal" class="text-inner-tspan" font-weight="normal">parasol-fraud</tspan><tspan font-style="normal" class="text-inner-tspan" font-weight="normal"> v1</tspan></tspan><tspan class="text-outer-tspan row" x="0" y="1em" dy="1.1em"><tspan font-style="normal" class="text-inner-tspan" font-weight="normal">subset:</tspan><tspan font-style="normal" class="text-inner-tspan" font-weight="normal"> v1</tspan></tspan></text></g></g></g><g class="node default good" id="d1012-flowchart-V2-5" data-look="classic" transform="translate(1051.3156280517578, 243.9000015258789)"><rect class="basic label-container" style="fill:#e6f4ea !important;stroke:#137333 !important" x="-88.421875" y="-33.29999923706055" width="176.84375" height="66.5999984741211"></rect><g class="label" style="color:#0d652d !important" transform="translate(0, -18.299999237060547)"><rect></rect><g><rect class="background" style="stroke: none"></rect><text xml:space="preserve" y="-10.1" style="fill:#0d652d !important"><tspan class="text-outer-tspan row" x="0" y="-0.1em" dy="1.1em"><tspan font-style="normal" class="text-inner-tspan" font-weight="normal">parasol-fraud</tspan><tspan font-style="normal" class="text-inner-tspan" font-weight="normal"> v2</tspan></tspan><tspan class="text-outer-tspan row" x="0" y="1em" dy="1.1em"><tspan font-style="normal" class="text-inner-tspan" font-weight="normal">subset:</tspan><tspan font-style="normal" class="text-inner-tspan" font-weight="normal"> v2</tspan></tspan></text></g></g></g><g class="node default note" id="d1012-flowchart-TEL-6" data-look="classic" transform="translate(1302.0968780517578, 185.60000228881836)"><rect class="basic label-container" style="fill:#e3f2fd !important;stroke:#1565c0 !important" x="-112.359375" y="-59.70000076293945" width="224.71875" height="119.4000015258789"></rect><g class="label" style="color:#0d47a1 !important" transform="translate(0, -44.70000076293945)"><rect></rect><g><rect class="background" style="stroke: none"></rect><text xml:space="preserve" y="-10.1" style="fill:#0d47a1 !important"><tspan class="text-outer-tspan row" x="0" y="-0.1em" dy="1.1em"><tspan font-style="normal" class="text-inner-tspan" font-weight="normal">measure</tspan><tspan font-style="normal" class="text-inner-tspan" font-weight="normal"> the</tspan><tspan font-style="normal" class="text-inner-tspan" font-weight="normal"> REAL</tspan><tspan font-style="normal" class="text-inner-tspan" font-weight="normal"> split</tspan></tspan><tspan class="text-outer-tspan row" x="0" y="1em" dy="1.1em"><tspan font-style="normal" class="text-inner-tspan" font-weight="normal">from</tspan><tspan font-style="normal" class="text-inner-tspan" font-weight="normal"> the</tspan></tspan><tspan class="text-outer-tspan row" x="0" y="2.1em" dy="1.1em"><tspan font-style="normal" class="text-inner-tspan" font-weight="normal">mesh's</tspan><tspan font-style="normal" class="text-inner-tspan" font-weight="normal"> own</tspan><tspan font-style="normal" class="text-inner-tspan" font-weight="normal"> telemetry:</tspan></tspan><tspan class="text-outer-tspan row" x="0" y="3.2em" dy="1.1em"><tspan font-style="normal" class="text-inner-tspan" font-weight="normal">istio_requests_total</tspan><tspan font-style="normal" class="text-inner-tspan" font-weight="normal"> by</tspan></tspan><tspan class="text-outer-tspan row" x="0" y="4.300000000000001em" dy="1.1em"><tspan font-style="normal" class="text-inner-tspan" font-weight="normal">destination_version</tspan></tspan></text></g></g></g></g></g></g><defs><filter id="d1012-drop-shadow" height="130%" width="130%"><feDropShadow dx="4" dy="4" stdDeviation="0" flood-opacity="0.06" flood-color="#000000"></feDropShadow></filter></defs><defs><filter id="d1012-drop-shadow-small" height="150%" width="150%"><feDropShadow dx="2" dy="2" stdDeviation="0" flood-opacity="0.06" flood-color="#000000"></feDropShadow></filter></defs><linearGradient id="d1012-gradient" gradientUnits="objectBoundingBox" x1="0%" y1="0%" x2="100%" y2="0%"><stop offset="0%" stop-color="hsl(0, 0%, 83.3333333333%)" stop-opacity="1"></stop><stop offset="100%" stop-color="hsl(0, 0%, 88.9215686275%)" stop-opacity="1"></stop></linearGradient></svg>